<svg fill="none" xmlns="http://www.w3.org/2000/svg" viewBox="0 0 72 72">
    <path fill-rule="evenodd" clip-rule="evenodd"
        d="M5.7 0 60 8c3.1.5 6 3.4 6.3 6.6L72 66.8c.3 3.1-2 5.4-5 5.2l-53.6-4.5a7.9 7.9 0 0 1-7-6.6L0 5.3C-.4 1.9 2.2-.4 5.7.1Z"
        fill="#009432" />
    <path opacity=".1" fill-rule="evenodd" clip-rule="evenodd"
        d="m3.5 7.6 6 51.2a6.5 6.5 0 0 0 5.7 5.4l49.3 4.1c1.2.1 2.2-.3 3-1 .6-.7 1-1.7.8-3l-5.1-48c-.3-2.6-2.6-5-5.2-5.4L8 3.6a4 4 0 0 0-3.4.8c-.8.8-1.2 1.8-1 3.2Zm-.7 0 6 51.3c.3 3 3.2 5.8 6.3 6L64.5 69c2.8.3 4.8-1.9 4.5-4.8l-5.1-48c-.3-2.9-3-5.6-5.8-6l-50-7.3c-3.3-.5-5.6 1.7-5.3 4.8Z"
        fill="#F1F2F2" />
    <path fill-rule="evenodd" clip-rule="evenodd"
        d="M20.1 22.2 36 49.8l15.9-27.6H30.7l5.3 9.2 2.6-4.5H44L36 40.6 25.4 22.2h-5.3Z" fill="#F1F2F2" />
</svg>